<?xml version="1.0" encoding="utf-8"?>
<!-- Generator: Adobe Illustrator 16.0.0, SVG Export Plug-In . SVG Version: 6.00 Build 0)  -->
<!DOCTYPE svg PUBLIC "-//W3C//DTD SVG 1.1//EN" "http://www.w3.org/Graphics/SVG/1.1/DTD/svg11.dtd">
<svg version="1.1" id="圖層_1" xmlns="http://www.w3.org/2000/svg" xmlns:xlink="http://www.w3.org/1999/xlink" x="0px" y="0px"
	 width="180px" height="50px" viewBox="0 0 180 50" enable-background="new 0 0 180 50" xml:space="preserve">
<g>
	<g>
		<path fill="#FFFFFF" d="M62.331,15.619L59.059,1.91h2.833l2.066,9.416l2.507-9.416h3.292l2.403,9.576l2.104-9.576h2.786
			l-3.329,13.709h-2.937L68.055,5.37l-2.723,10.249H62.331z"/>
		<path fill="#FFFFFF" d="M77.9,8.848c0-1.396,0.209-2.568,0.627-3.516c0.311-0.698,0.736-1.323,1.275-1.879
			c0.54-0.554,1.13-0.966,1.772-1.234c0.855-0.361,1.84-0.544,2.955-0.544c2.02,0,3.637,0.627,4.849,1.881
			c1.213,1.252,1.819,2.996,1.819,5.226c0,2.215-0.602,3.946-1.805,5.195c-1.203,1.251-2.813,1.875-4.825,1.875
			c-2.039,0-3.659-0.622-4.863-1.864C78.502,12.743,77.9,11.03,77.9,8.848z M80.752,8.754c0,1.553,0.359,2.729,1.076,3.531
			c0.716,0.801,1.626,1.201,2.729,1.201c1.104,0,2.009-0.396,2.718-1.192c0.706-0.794,1.061-1.987,1.061-3.577
			c0-1.57-0.345-2.743-1.033-3.516c-0.689-0.773-1.605-1.16-2.746-1.16s-2.06,0.391-2.758,1.175
			C81.102,5.998,80.752,7.177,80.752,8.754z"/>
		<path fill="#FFFFFF" d="M93.368,15.619V1.91h5.824c1.466,0,2.531,0.123,3.193,0.37c0.665,0.245,1.196,0.684,1.595,1.313
			s0.599,1.351,0.599,2.159c0,1.03-0.303,1.878-0.907,2.55c-0.604,0.669-1.508,1.092-2.712,1.265
			c0.599,0.352,1.093,0.734,1.482,1.151s0.915,1.16,1.575,2.226l1.675,2.675h-3.312l-2-2.984c-0.711-1.063-1.197-1.737-1.459-2.014
			c-0.262-0.279-0.539-0.467-0.832-0.572c-0.293-0.101-0.758-0.152-1.394-0.152h-0.562v5.723H93.368z M96.134,7.708h2.049
			c1.327,0,2.157-0.057,2.487-0.168c0.329-0.112,0.589-0.307,0.775-0.58c0.188-0.274,0.28-0.617,0.28-1.029
			c0-0.461-0.124-0.832-0.369-1.117c-0.247-0.282-0.594-0.462-1.042-0.536c-0.225-0.031-0.898-0.048-2.021-0.048h-2.16V7.708z"/>
		<path fill="#FFFFFF" d="M107.224,15.619V1.91h2.77v6.086l5.592-6.086h3.721l-5.161,5.338l5.441,8.371h-3.581l-3.769-6.434
			l-2.243,2.291v4.143H107.224z"/>
		<path fill="#FFFFFF" d="M59.932,39.885c0-2.018,0.302-3.709,0.905-5.078c0.449-1.008,1.065-1.913,1.842-2.714
			c0.779-0.802,1.633-1.396,2.561-1.783c1.234-0.523,2.657-0.786,4.269-0.786c2.917,0,5.251,0.906,7.002,2.717
			c1.752,1.811,2.628,4.326,2.628,7.549c0,3.198-0.869,5.698-2.607,7.504C74.794,49.099,72.471,50,69.563,50
			c-2.945,0-5.286-0.897-7.024-2.692C60.801,45.51,59.932,43.038,59.932,39.885z M64.051,39.75c0,2.242,0.517,3.941,1.553,5.099
			c1.037,1.158,2.352,1.735,3.945,1.735s2.902-0.573,3.924-1.723c1.021-1.146,1.533-2.869,1.533-5.166
			c0-2.269-0.498-3.962-1.494-5.078c-0.994-1.116-2.316-1.675-3.963-1.675s-2.976,0.565-3.984,1.696
			C64.556,35.769,64.051,37.473,64.051,39.75z"/>
		<path fill="#FFFFFF" d="M83.615,29.863h3.999v10.726c0,1.701,0.05,2.805,0.148,3.308c0.172,0.811,0.579,1.463,1.222,1.953
			c0.645,0.49,1.524,0.735,2.642,0.735c1.134,0,1.989-0.232,2.565-0.695c0.576-0.464,0.923-1.033,1.04-1.709
			s0.176-1.797,0.176-3.363V29.863h3.997v10.4c0,2.378-0.107,4.057-0.323,5.037c-0.216,0.982-0.615,1.812-1.194,2.485
			C97.304,48.463,96.528,49,95.555,49.4C94.583,49.801,93.314,50,91.747,50c-1.891,0-3.325-0.219-4.303-0.654
			c-0.978-0.437-1.749-1.003-2.316-1.701c-0.567-0.698-0.941-1.431-1.121-2.195c-0.261-1.134-0.392-2.809-0.392-5.024V29.863z"/>
		<path fill="#FFFFFF" d="M109.459,49.664v-16.45h-5.876v-3.351h15.735v3.351h-5.862v16.45H109.459z"/>
	</g>
	<g>
		<path fill="#FFFF00" d="M123.042,2.436c0-1.347,1.093-2.436,2.44-2.436h3.983c1.347,0,2.438,1.089,2.438,2.436v41.441
			c0,1.344-1.091,2.438-2.438,2.438h-3.983c-1.348,0-2.44-1.094-2.44-2.438V2.436z"/>
		<path fill="#FFFF00" d="M134.267,7.136c0-1.347,1.091-2.438,2.438-2.438h3.984c1.345,0,2.438,1.092,2.438,2.438v32.043
			c0,1.345-1.093,2.437-2.438,2.437h-3.984c-1.348,0-2.438-1.092-2.438-2.437V7.136z"/>
		<path fill="#FFFF00" d="M145.492,12.796c0-1.346,1.094-2.438,2.439-2.438h3.984c1.347,0,2.438,1.092,2.438,2.438v20.723
			c0,1.345-1.091,2.437-2.438,2.437h-3.984c-1.346,0-2.439-1.092-2.439-2.437V12.796z"/>
		<path fill="#FFFF00" d="M56.957,43.879c0,1.346-1.093,2.436-2.439,2.436h-3.983c-1.346,0-2.438-1.09-2.438-2.436V2.438
			C48.096,1.093,49.188,0,50.534,0h3.983c1.346,0,2.439,1.093,2.439,2.438V43.879z"/>
		<path fill="#FFFF00" d="M45.73,39.179c0,1.347-1.091,2.437-2.438,2.437h-3.985c-1.344,0-2.437-1.09-2.437-2.437V7.136
			c0-1.345,1.093-2.438,2.437-2.438h3.985c1.347,0,2.438,1.094,2.438,2.438V39.179z"/>
		<path fill="#FFFF00" d="M34.504,33.519c0,1.347-1.093,2.437-2.439,2.437h-3.983c-1.346,0-2.438-1.09-2.438-2.437V12.796
			c0-1.344,1.091-2.438,2.438-2.438h3.983c1.346,0,2.439,1.094,2.439,2.438V33.519z"/>
		<rect x="59.323" y="19.911" fill="#FFFF00" width="61.353" height="6.492"/>
		<rect x="20.092" y="19.911" fill="#FFFF00" width="3.191" height="6.492"/>
		<rect x="156.716" y="19.911" fill="#FFFF00" width="3.192" height="6.492"/>
	</g>
</g>
</svg>
